<svg width="403" height="384" viewBox="0 0 403 384" fill="none" xmlns="http://www.w3.org/2000/svg">
<path d="M334.5 374.665C242.1 396.665 144 369.823 121.5 366.165C41.8629 353.219 13.5899 355.407 10.1727 359.898C10.115 359.987 10.0575 360.076 10 360.165C10.0481 360.075 10.1056 359.986 10.1727 359.898C37.003 318.572 84.2103 320.178 104.5 326.165C190.483 360.289 240.879 370.922 334.5 374.665Z" fill="#6CE3FF"/>
<path d="M334 375C172.4 369 128 337 141 316C195 353 277 354 334 375Z" fill="#00B1FF"/>
<path d="M371.5 206.5C423 192.999 392.412 134.127 347.5 138.5H272.5C344.408 162.848 356.5 176.5 371.5 206.5Z" fill="#00B1FF"/>
<path d="M240.158 228.561C254.783 196.211 221.806 171.638 139 204.458L195.673 122L265.142 134.051C283.627 139.337 337.049 143.565 364.472 185.428C391.894 227.29 329.58 241.067 240.158 228.561Z" fill="#0067AD"/>
<path d="M184.5 56.0002C69.9999 125.5 137.242 267.062 255.5 343.501C124.611 224.856 159.203 92.5365 396 163.5C408.5 147.5 406.5 109 366 84.5C325.5 60 259.821 28.6758 184.5 56.0002Z" fill="#00B1FF"/>
<path d="M300.5 122.5C297.271 134.746 290.306 139.557 267.5 144L310 152C314.562 136.637 312.003 130.4 300.5 122.5Z" fill="#0067AD"/>
<path d="M348.5 44C332.215 55.1661 319.971 57.221 291.5 52L337 71C346.872 62.2812 349.62 56.4557 348.5 44Z" fill="#00B1FF"/>
<path d="M258.683 344.5C53.6836 297 34.6837 117 143.684 41C174.684 23.5 158.283 9.95844 167.184 0C190.471 45.7506 198.939 76.7086 193.549 108.345C205.422 108.998 214.698 113.483 227.5 123C202.102 127.118 190.269 135.574 173.184 162C141.903 235.369 161.93 278.367 258.683 344.5Z" fill="#6CE3FF"/>
<circle cx="250.5" cy="261.5" r="11.5" fill="#6CE3FF"/>
<circle cx="46" cy="301" r="8" fill="#6CE3FF"/>
<circle cx="231" cy="98" r="8" fill="#6CE3FF"/>
<circle cx="139" cy="17" r="6" fill="#6CE3FF"/>
<circle cx="209" cy="212" r="6" fill="#0067AD"/>
<circle cx="349" cy="151" r="6" fill="#0067AD"/>
<path d="M40.2977 156.501C63.5596 238.433 78.7547 272.189 114.202 312.766C53.3545 263.428 24.9846 235.848 2.17173 168.611L40.2977 156.501Z" fill="#0067AD"/>
<path d="M40.7566 160.506C40.6436 171.551 31.0981 180.408 20.053 180.295C9.00788 180.182 0.145701 171.136 0.258771 160.091C0.37184 149.046 9.91731 140.189 20.9624 140.302C32.0075 140.415 40.8697 149.46 40.7566 160.506Z" fill="#0067AD"/>
</svg>
