<svg width="11" height="13" viewBox="0 0 11 13" fill="none" xmlns="http://www.w3.org/2000/svg">
<g clip-path="url(#clip0_616_11)">
<path d="M3.92857 2.03125C3.92857 1.3584 4.45647 0.8125 5.10714 0.8125H5.89286C6.54353 0.8125 7.07143 1.3584 7.07143 2.03125V10.9688C7.07143 11.6416 6.54353 12.1875 5.89286 12.1875H5.10714C4.45647 12.1875 3.92857 11.6416 3.92857 10.9688V2.03125ZM0 6.90625C0 6.2334 0.527902 5.6875 1.17857 5.6875H1.96429C2.61496 5.6875 3.14286 6.2334 3.14286 6.90625V10.9688C3.14286 11.6416 2.61496 12.1875 1.96429 12.1875H1.17857C0.527902 12.1875 0 11.6416 0 10.9688V6.90625ZM9.03571 2.4375H9.82143C10.4721 2.4375 11 2.9834 11 3.65625V10.9688C11 11.6416 10.4721 12.1875 9.82143 12.1875H9.03571C8.38504 12.1875 7.85714 11.6416 7.85714 10.9688V3.65625C7.85714 2.9834 8.38504 2.4375 9.03571 2.4375Z" fill="#B300B7" fill-opacity="0.8"/>
</g>
<defs>
<clipPath id="clip0_616_11">
<rect width="11" height="13" fill="white"/>
</clipPath>
</defs>
</svg>
