<svg width="13" height="13" viewBox="0 0 13 13" fill="none" xmlns="http://www.w3.org/2000/svg">
<g clip-path="url(#clip0_616_8)">
<path d="M13 6.09375C13 9.01113 10.0903 11.375 6.50002 11.375C5.55803 11.375 4.66428 11.2125 3.85686 10.9205C3.55471 11.1414 3.06213 11.4436 2.47815 11.6975C1.86877 11.9615 1.13498 12.1875 0.406271 12.1875C0.241231 12.1875 0.0939659 12.0885 0.0304893 11.9361C-0.0329873 11.7838 0.0025596 11.6111 0.116817 11.4943L0.124435 11.4867C0.132052 11.4791 0.142208 11.4689 0.157442 11.4512C0.185372 11.4207 0.228536 11.3725 0.281857 11.3064C0.385958 11.1795 0.525606 10.9916 0.667794 10.758C0.9217 10.3365 1.16291 9.78301 1.21115 9.16094C0.449435 8.29766 2.05397e-05 7.23887 2.05397e-05 6.09375C2.05397e-05 3.17637 2.90979 0.8125 6.50002 0.8125C10.0903 0.8125 13 3.17637 13 6.09375Z" fill="#007FE7"/>
</g>
<defs>
<clipPath id="clip0_616_8">
<rect width="13" height="13" fill="white"/>
</clipPath>
</defs>
</svg>
