<svg width="13" height="13" viewBox="0 0 13 13" fill="none" xmlns="http://www.w3.org/2000/svg">
<path d="M1.20859 7.6273L5.79668 11.9107C5.98711 12.0884 6.23848 12.1875 6.5 12.1875C6.76152 12.1875 7.01289 12.0884 7.20332 11.9107L11.7914 7.6273C12.5633 6.90874 13 5.90073 13 4.84702V4.69976C13 2.92495 11.7178 1.41167 9.96836 1.11968C8.81055 0.926711 7.63242 1.30503 6.80469 2.13277L6.5 2.43745L6.19531 2.13277C5.36758 1.30503 4.18945 0.926711 3.03164 1.11968C1.28223 1.41167 0 2.92495 0 4.69976V4.84702C0 5.90073 0.436719 6.90874 1.20859 7.6273Z" fill="#FF0000" fill-opacity="0.8"/>
</svg>
